<mxfile host="app.diagrams.net" agent="Mozilla/5.0 (Windows NT 10.0; Win64; x64) AppleWebKit/537.36 (KHTML, like Gecko) Chrome/130.0.0.0 Safari/537.36" version="24.8.3">
  <diagram name="Page-1" id="jjm_6yDGOMSJnaItE-PE">
    <mxGraphModel dx="434" dy="225" grid="1" gridSize="10" guides="1" tooltips="1" connect="1" arrows="1" fold="1" page="1" pageScale="1" pageWidth="850" pageHeight="1100" math="0" shadow="0">
      <root>
        <mxCell id="0" />
        <mxCell id="1" parent="0" />
        <mxCell id="HKZ9QP1TeCKkzhwh4RXd-1" value="" style="shape=hexagon;perimeter=hexagonPerimeter2;whiteSpace=wrap;html=1;fixedSize=1;" parent="1" vertex="1">
          <mxGeometry x="100" y="120" width="80" height="70" as="geometry" />
        </mxCell>
        <mxCell id="VlvfsW5KB2tlWdJKDC6B-1" value="" style="rounded=1;whiteSpace=wrap;html=1;" vertex="1" parent="1">
          <mxGeometry x="126.25" y="110" width="27.5" height="10" as="geometry" />
        </mxCell>
        <mxCell id="VlvfsW5KB2tlWdJKDC6B-2" value="" style="rounded=1;whiteSpace=wrap;html=1;rotation=-60;" vertex="1" parent="1">
          <mxGeometry x="160" y="170" width="27.5" height="10" as="geometry" />
        </mxCell>
        <mxCell id="VlvfsW5KB2tlWdJKDC6B-4" value="" style="rounded=1;whiteSpace=wrap;html=1;rotation=60;" vertex="1" parent="1">
          <mxGeometry x="92" y="170" width="27.5" height="10" as="geometry" />
        </mxCell>
        <mxCell id="VlvfsW5KB2tlWdJKDC6B-7" value="" style="endArrow=none;html=1;rounded=0;entryX=0.747;entryY=0.995;entryDx=0;entryDy=0;entryPerimeter=0;" edge="1" parent="1">
          <mxGeometry width="50" height="50" relative="1" as="geometry">
            <mxPoint x="155" y="200" as="sourcePoint" />
            <mxPoint x="160.00000000000006" y="189.99999999999997" as="targetPoint" />
          </mxGeometry>
        </mxCell>
        <mxCell id="VlvfsW5KB2tlWdJKDC6B-8" value="" style="endArrow=none;html=1;rounded=0;entryX=0.747;entryY=0.995;entryDx=0;entryDy=0;entryPerimeter=0;" edge="1" parent="1">
          <mxGeometry width="50" height="50" relative="1" as="geometry">
            <mxPoint x="124.50000000000011" y="200" as="sourcePoint" />
            <mxPoint x="120.00000000000006" y="189.99999999999997" as="targetPoint" />
          </mxGeometry>
        </mxCell>
        <mxCell id="VlvfsW5KB2tlWdJKDC6B-9" value="" style="endArrow=none;html=1;rounded=0;" edge="1" parent="1">
          <mxGeometry width="50" height="50" relative="1" as="geometry">
            <mxPoint x="123" y="200" as="sourcePoint" />
            <mxPoint x="157" y="200" as="targetPoint" />
          </mxGeometry>
        </mxCell>
        <mxCell id="VlvfsW5KB2tlWdJKDC6B-24" value="" style="endArrow=classic;html=1;rounded=0;" edge="1" parent="1">
          <mxGeometry width="50" height="50" relative="1" as="geometry">
            <mxPoint x="140" y="160" as="sourcePoint" />
            <mxPoint x="170" y="160" as="targetPoint" />
          </mxGeometry>
        </mxCell>
        <mxCell id="VlvfsW5KB2tlWdJKDC6B-25" value="" style="endArrow=classic;html=1;rounded=0;" edge="1" parent="1">
          <mxGeometry width="50" height="50" relative="1" as="geometry">
            <mxPoint x="139.9" y="160" as="sourcePoint" />
            <mxPoint x="140" y="130" as="targetPoint" />
          </mxGeometry>
        </mxCell>
        <mxCell id="VlvfsW5KB2tlWdJKDC6B-26" value="" style="endArrow=classic;html=1;rounded=0;" edge="1" parent="1">
          <mxGeometry width="50" height="50" relative="1" as="geometry">
            <mxPoint x="140.1" y="114.81" as="sourcePoint" />
            <mxPoint x="170.1" y="114.81" as="targetPoint" />
          </mxGeometry>
        </mxCell>
        <mxCell id="VlvfsW5KB2tlWdJKDC6B-27" value="" style="endArrow=classic;html=1;rounded=0;" edge="1" parent="1">
          <mxGeometry width="50" height="50" relative="1" as="geometry">
            <mxPoint x="140" y="114.81" as="sourcePoint" />
            <mxPoint x="140.1" y="84.81" as="targetPoint" />
          </mxGeometry>
        </mxCell>
      </root>
    </mxGraphModel>
  </diagram>
</mxfile>
